<?xml version="1.0" encoding="UTF-8" standalone="no"?>
<svg
   xmlns:dc="http://purl.org/dc/elements/1.1/"
   xmlns:cc="http://creativecommons.org/ns#"
   xmlns:rdf="http://www.w3.org/1999/02/22-rdf-syntax-ns#"
   xmlns:svg="http://www.w3.org/2000/svg"
   xmlns="http://www.w3.org/2000/svg"
   height="220.252"
   width="227.767"
   id="svg32"
   version="1.1"
   viewBox="0 0 227.767 220.252">
  <metadata
     id="metadata36">
    <rdf:RDF>
      <cc:Work
         rdf:about="">
        <dc:format>image/svg+xml</dc:format>
        <dc:type
           rdf:resource="http://purl.org/dc/dcmitype/StillImage" />
        <dc:title></dc:title>
      </cc:Work>
    </rdf:RDF>
  </metadata>
  <defs
     id="defs4">
    <style
       id="style2">.cls-1{fill:#124f1a;}.cls-2{fill:#f5f5f5;}</style>
    <mask
       id="mask2397"
       maskUnits="userSpaceOnUse">
      <g
         id="g2421">
        <rect
           style="opacity:0.98999999;fill:#fdffff;fill-opacity:1;stroke-width:1.4747107"
           id="rect2399"
           width="208.98199"
           height="204.97301"
           x="1.512"
           y="-1.5990071" />
        <g
           id="g2419">
          <polygon
             transform="translate(0,-3.116273)"
             style="fill:#000000;fill-opacity:1"
             id="polygon2401"
             points="61.43,93.77 61.43,99.17 41.41,99.17 41.41,76.31 46.6,76.31 46.6,93.77 "
             class="cls-1" />
          <path
             style="fill:#000000;fill-opacity:1"
             id="path2403"
             d="m 67.56,73.193727 h 5.19 v 13.16 a 5.54,5.54 0 0 0 1.28,4 c 0.86,0.89 2.28,1.33 4.26,1.33 1.98,0 3.41,-0.44 4.26,-1.33 a 5.5,5.5 0 0 0 1.29,-4 v -13.16 H 89 v 13.16 q 0,10 -10.74,10 -10.74,0 -10.73,-10 z"
             class="cls-1" />
          <polygon
             transform="translate(0,-3.116273)"
             style="fill:#000000;fill-opacity:1"
             id="polygon2405"
             points="108.6,99.17 103.4,99.17 103.4,81.02 94.02,81.02 94.02,76.31 117.98,76.31 117.98,81.02 108.6,81.02 "
             class="cls-1" />
          <polygon
             transform="translate(0,-3.116273)"
             style="fill:#000000;fill-opacity:1"
             id="polygon2407"
             points="136.31,81.02 136.31,94.46 141.75,94.46 141.75,99.17 125.67,99.17 125.67,94.46 131.11,94.46 131.11,81.02 125.67,81.02 125.67,76.31 141.75,76.31 141.75,81.02 "
             class="cls-1" />
          <polygon
             transform="translate(0,-3.116273)"
             style="fill:#000000;fill-opacity:1"
             id="polygon2409"
             points="166.96,99.17 155.87,84.14 155.87,99.17 150.68,99.17 150.68,76.31 156.36,76.31 166.96,90.76 166.96,76.31 172.15,76.31 172.15,99.17 "
             class="cls-1" />
          <polygon
             transform="translate(0,-3.116273)"
             style="fill:#000000;fill-opacity:1"
             id="polygon2411"
             points="76.8,117.88 69.08,140.73 59.8,140.73 52.07,117.88 57.51,117.88 63.47,135.54 65.41,135.54 71.36,117.88 "
             class="cls-1" />
          <polygon
             transform="translate(0,-3.116273)"
             style="fill:#000000;fill-opacity:1"
             id="polygon2413"
             points="86.99,122.58 86.99,126.81 101.33,126.81 101.33,131.1 86.99,131.1 86.99,136.02 102.89,136.02 102.89,140.73 81.79,140.73 81.79,117.88 102.09,117.88 102.09,122.58 "
             class="cls-1" />
          <path
             style="fill:#000000;fill-opacity:1"
             id="path2415"
             d="m 114.31,125.97373 h 6.13 a 5.29,5.29 0 0 0 3.43,-1 3,3 0 0 0 1.28,-2.44 2.45,2.45 0 0 0 -1.23,-2.44 9,9 0 0 0 -3.79,-0.61 h -5.82 z m 6.55,3.61 h -6.55 v 8 h -5.19 v -22.83 h 11.12 c 3.46,0 6,0.66 7.65,2 a 7.39,7.39 0 0 1 1.4,9.32 7.12,7.12 0 0 1 -3.06,2.58 l 5.78,9 h -6 z"
             class="cls-1" />
          <polygon
             transform="translate(0,-3.116273)"
             style="fill:#000000;fill-opacity:1"
             id="polygon2417"
             points="135.58,117.88 159.55,117.88 159.55,122.58 150.16,122.58 150.16,140.73 144.97,140.73 144.97,122.58 135.58,122.58 "
             class="cls-1" />
        </g>
      </g>
    </mask>
  </defs>
  <g
     transform="translate(0,3.1120042)"
     data-name="Calque 2"
     id="Calque_2">
    <g
       data-name="Calque 1"
       id="Calque_1-2">
      <path
         style="opacity:0.98999999;fill:#f5f5f5;fill-opacity:1"
         id="path10"
         d="m 120.2,215.62373 a 25.16,25.16 0 0 1 -24.58,-18.35 v 0 a 22.62,22.62 0 0 0 -30.2,-14.55 25.14,25.14 0 0 1 -29.67,-7.78 25.16,25.16 0 0 1 -1,-30.66 22.68,22.68 0 0 0 3.51,-18 22.71,22.71 0 0 0 -10.96,-14.66 25.64,25.64 0 0 1 10.9,-47.940003 22.65,22.65 0 0 0 20.9,-26.22 25.18,25.18 0 0 1 14.23,-27.2 25.16,25.16 0 0 1 30.11,5.87 22.7,22.7 0 0 0 16.76,7.42 22.66,22.66 0 0 0 16.76,-7.42 25.16,25.16 0 0 1 30.11,-5.87 25.16,25.16 0 0 1 14.18,27.2 22.65,22.65 0 0 0 20.95,26.22 25.64,25.64 0 0 1 11,47.930003 22.64,22.64 0 0 0 -7.46,32.69 25.65,25.65 0 0 1 -30.66,38.44 22.62,22.62 0 0 0 -30.2,14.55 25.16,25.16 0 0 1 -24.68,18.33 z m -21.71,-19.19 a 22.64,22.64 0 0 0 43.41,0 25.64,25.64 0 0 1 34.21,-16.47 22.65,22.65 0 0 0 27.07,-34 25.64,25.64 0 0 1 8.44,-37 22.64,22.64 0 0 0 -9.65,-42.330003 25.65,25.65 0 0 1 -23.68,-29.69 22.22,22.22 0 0 0 -12.53,-24 22.22,22.22 0 0 0 -26.56,5.2 25.66,25.66 0 0 1 -19,8.41 v 0 a 25.67,25.67 0 0 1 -19,-8.4 22.22,22.22 0 0 0 -26.57,-5.19 22.22,22.22 0 0 0 -12.52,24 25.65,25.65 0 0 1 -23.68,29.71 22.65,22.65 0 0 0 -9.66,42.330003 25.63,25.63 0 0 1 8.45,37 22.65,22.65 0 0 0 27.07,34 25.62,25.62 0 0 1 34.2,16.47 l -1.43,0.43 z"
         class="cls-1" />
      <path
         mask="url(#mask2397)"
         style="fill:#f5f5f5"
         id="path8"
         d="m 82.86,186.12373 v 0 a 24.15,24.15 0 0 0 -32.21,-15.51 v 0 c -22.27,9 -42.6,-16.49 -28.86,-36.19 A 24.15,24.15 0 0 0 13.84,99.563727 v 0 c -20.94,-11.78 -13.68,-43.59 10.3,-45.13 a 24.15,24.15 0 0 0 22.29,-27.95 v 0 c -3.84,-23.72 25.57,-37.87 41.7,-20.08 v 0 a 24.14,24.14 0 0 0 35.74,0 v 0 c 16.13,-17.79 45.54,-3.64 41.7,20.08 v 0 a 24.15,24.15 0 0 0 22.29,27.95 v 0 c 24,1.54 31.24,33.35 10.3,45.13 a 24.15,24.15 0 0 0 -7.95,34.860003 c 13.74,19.7 -6.59,45.21 -28.86,36.19 v 0 a 24.15,24.15 0 0 0 -32.21,15.51 v 0 c -6.83,23 -39.45,23 -46.28,0"
         class="cls-2" />
    </g>
  </g>
</svg>
